<?xml version="1.0" standalone="no"?><!DOCTYPE svg PUBLIC "-//W3C//DTD SVG 1.1//EN" "http://www.w3.org/Graphics/SVG/1.1/DTD/svg11.dtd"><svg t="1558595327244" class="icon" style="" viewBox="0 0 1024 1024" version="1.1" xmlns="http://www.w3.org/2000/svg" p-id="2981" xmlns:xlink="http://www.w3.org/1999/xlink" width="200" height="200"><defs><style type="text/css"></style></defs><path d="M605.542 473.108c0.014-161.432-131.324-292.77-292.77-292.77-33.56 0.014-65.818 5.686-95.84 16.136a291.636 291.636 0 0 0-72.084 36.954C69.412 286.432 20 374.114 20 473.108c0 33.008 5.488 64.744 15.612 94.358a291.866 291.866 0 0 0 36.6 72.322c45.708 65.76 117.664 111.978 200.564 123.346v87.936l-32.598-32.598c-15.626-15.626-40.942-15.626-56.568 0a39.866 39.866 0 0 0-11.708 28.284c0 10.24 3.902 20.478 11.708 28.284l108.272 108.272c11.542 11.54 30.264 11.54 41.804 0l108.258-108.286c15.612-15.612 15.626-40.942 0-56.57-15.614-15.612-40.956-15.612-56.57 0l-32.612 32.612 0.014-87.922c142.584-19.568 252.766-142.166 252.766-290.038zM312.786 685.876c-68.476 0-129.514-32.528-168.448-82.944a211.788 211.788 0 0 1-36.486-72.55 212.112 212.112 0 0 1-7.834-57.276c0-67.656 31.734-128.042 81.104-167.034 21.2-16.73 45.638-29.542 72.224-37.264a211.54 211.54 0 0 1 59.438-8.47c117.324 0 212.768 95.446 212.768 212.768 0 117.326-95.444 212.77-212.766 212.77z" fill="#6770E6" p-id="2982"></path><path d="M441.946 835.028l-108.258 108.286c-11.54 11.54-30.264 11.54-41.804 0l-108.272-108.272a39.948 39.948 0 0 1-6.312-8.284 39.956 39.956 0 0 0-5.398 20c0 10.24 3.902 20.478 11.708 28.284l108.272 108.272c11.542 11.54 30.264 11.54 41.804 0l108.258-108.286c13.086-13.086 15.168-32.98 6.312-48.286a39.826 39.826 0 0 1-6.31 8.286z" fill="#5A62C9" p-id="2983"></path><path d="M1003.986 505.5c0-22.08-17.9-40-40-40-22.08 0-40 17.92-40 40v46.12l-62.16-62.18c86.98-114.66 78.2-279.26-26.36-383.82-114.14-114.16-299.88-114.16-414.04 0-23.72 23.74-42.52 50.56-56.36 79.18 27.1 4.9 52.92 13.56 76.9 25.4 9.44-17.24 21.46-33.44 36.04-48.02 82.96-82.96 217.94-82.96 300.9 0s82.96 217.94 0 300.9c-48.42 48.42-114.58 68.58-177.76 60.46a211.808 211.808 0 0 1-77.1-25.5 212.146 212.146 0 0 1-46.04-34.96c-47.84-47.84-68.1-112.98-60.76-175.46a209.916 209.916 0 0 0-77.02-25.72c-15.86 90.82 11.2 187.76 81.2 257.76 23.34 23.34 49.66 41.9 77.76 55.68 24.6 12.08 50.54 20.5 77.02 25.26 78.82 14.18 162.38-4.02 229.04-54.6l62.18 62.18h-46.1c-22.1 0-40 17.9-40 40 0 11.04 4.48 21.04 11.72 28.28 7.24 7.24 17.24 11.72 28.28 11.72h153.12c16.32 0 29.56-13.24 29.56-29.56l-0.02-153.12z" fill="#69EBFC" p-id="2984"></path><path d="M417.246 287.62c-0.318-0.18-0.642-0.352-0.96-0.53 0.124 1.836 0.274 3.672 0.444 5.506 0.156-1.66 0.322-3.32 0.516-4.976z" fill="#E0734A" p-id="2985"></path><path d="M974.446 648.18h-153.12c-11.04 0-21.04-4.48-28.28-11.72a40.058 40.058 0 0 1-6.324-8.288 39.766 39.766 0 0 0-5.396 20.008c0 11.04 4.48 21.04 11.72 28.28 7.24 7.24 17.24 11.72 28.28 11.72h153.12c16.32 0 29.56-13.24 29.56-29.56L1004 618.724c-0.056 16.272-13.268 29.456-29.554 29.456z" fill="#5ED4E3" p-id="2986"></path><path d="M421.426 145.62c114.16-114.16 299.9-114.16 414.04 0 52.008 52.008 80.31 118.872 84.928 187.056 5.544-81.5-22.76-164.888-84.928-227.056-114.14-114.16-299.88-114.16-414.04 0-23.72 23.74-42.52 50.56-56.36 79.18 6.894 1.246 13.702 2.742 20.42 4.466a293.654 293.654 0 0 1 35.94-43.646z" fill="#A1F1FC" p-id="2987"></path><path d="M310.286 220.144c18.7-0.16 37.02 1.46 54.78 4.66 27.1 4.9 52.92 13.56 76.9 25.4 91.194 45.042 155.698 136.206 162.888 242.81 0.454-6.648 0.692-13.352 0.692-20.11 0-115.08-66.76-214.88-163.58-262.7a290.272 290.272 0 0 0-76.9-25.4c-17.76-3.2-36.08-4.82-54.78-4.66-159.06 1.32-288.86 131.02-290.28 290.08-0.068 7.638 0.174 15.208 0.684 22.704 10.274-151.058 136.344-271.512 289.596-272.784z" fill="#8F95E6" p-id="2988"></path></svg>