<?xml version="1.0" standalone="no"?><!DOCTYPE svg PUBLIC "-//W3C//DTD SVG 1.1//EN" "http://www.w3.org/Graphics/SVG/1.1/DTD/svg11.dtd"><svg t="1558595305234" class="icon" style="" viewBox="0 0 1024 1024" version="1.1" xmlns="http://www.w3.org/2000/svg" p-id="2850" xmlns:xlink="http://www.w3.org/1999/xlink" width="200" height="200"><defs><style type="text/css"></style></defs><path d="M286.798 529.548S128.21 580.732 68.388 753.382c-8.234 23.764 4.77 49.63 28.838 56.932l133.954 40.652 55.618-321.418zM739.604 529.548s158.588 51.184 218.41 223.834c8.234 23.764-4.77 49.63-28.838 56.932l-133.954 40.652-55.618-321.418z" fill="#D476E2" p-id="2851"></path><path d="M853.774 802.58c0 156.92-152.466 204.808-340.542 204.808S172.688 959.5 172.688 802.58s152.466-363.448 340.542-363.448S853.774 645.662 853.774 802.58z" fill="#B665C2" p-id="2852"></path><path d="M254.556 152.748m-149.36 0a149.36 149.36 0 1 0 298.72 0 149.36 149.36 0 1 0-298.72 0Z" fill="#B665C2" p-id="2853"></path><path d="M190.477098 179.285874a69.36 69.36 0 1 0 128.160569-53.085846 69.36 69.36 0 1 0-128.160569 53.085846Z" fill="#333399" p-id="2854"></path><path d="M771.848 152.748m-149.36 0a149.36 149.36 0 1 0 298.72 0 149.36 149.36 0 1 0-298.72 0Z" fill="#B665C2" p-id="2855"></path><path d="M254.556 43.388c75.702 0 138.208 56.334 147.986 129.36 0.876-6.546 1.372-13.214 1.372-20 0-82.488-66.87-149.36-149.358-149.36s-149.36 66.87-149.36 149.36c0 6.786 0.496 13.454 1.372 20 9.78-73.026 72.284-129.36 147.988-129.36zM771.848 43.388c75.702 0 138.208 56.334 147.986 129.36 0.876-6.546 1.372-13.214 1.372-20 0-82.488-66.87-149.36-149.358-149.36s-149.36 66.87-149.36 149.36c0 6.786 0.496 13.454 1.372 20 9.78-73.026 72.286-129.36 147.988-129.36z" fill="#D476E2" p-id="2856"></path><path d="M760.751141 221.205961a69.36 69.36 0 1 0 22.224127-136.92818 69.36 69.36 0 1 0-22.224127 136.92818Z" fill="#333399" p-id="2857"></path><path d="M853.774 350.66c0 162.442-152.466 274.128-340.542 274.128S172.688 513.102 172.688 350.66 325.154 36.532 513.23 36.532 853.774 188.218 853.774 350.66z" fill="#D476E2" p-id="2858"></path><path d="M513.23 76.532c180.292 0 327.836 139.392 339.742 294.024 0.514-6.544 0.8-13.172 0.8-19.896 0-162.442-152.466-314.128-340.542-314.128-188.076 0-340.542 151.686-340.542 314.128 0 6.724 0.286 13.352 0.8 19.896 11.908-154.632 159.452-294.024 339.742-294.024z" fill="#EA82FA" p-id="2859"></path><path d="M352.25 824.032c30.458 73.244-0.822 145.318-65.24 172.108-64.418 26.788-137.582-1.854-168.04-75.098s-6.678-163.354 57.74-190.144c64.418-26.788 145.082 19.89 175.54 93.134zM677.896 824.032c-30.458 73.244 0.822 145.318 65.24 172.108 64.418 26.788 137.582-1.854 168.04-75.098s6.678-163.354-57.74-190.144c-64.418-26.788-145.082 19.89-175.54 93.134z" fill="#D476E2" p-id="2860"></path><path d="M287.01 956.14c-64.418 26.788-137.582-1.854-168.042-75.098-6.228-14.976-10.15-30.656-11.96-46.356-3.334 28.292 0.39 58.538 11.96 86.356 30.458 73.244 103.622 101.886 168.042 75.098 53.632-22.304 84.256-76.004 75.442-135.628-6.554 42.722-34.182 78.47-75.442 95.628zM911.176 881.042c-30.458 73.244-103.622 101.886-168.04 75.098-41.26-17.158-68.888-52.906-75.444-95.628-8.814 59.624 21.81 113.324 75.444 135.628 64.418 26.788 137.582-1.854 168.04-75.098 11.568-27.818 15.294-58.066 11.96-86.356-1.81 15.7-5.732 31.382-11.96 46.356z" fill="#B665C2" p-id="2861"></path><path d="M362.102 330.66m-39.286 0a39.286 39.286 0 1 0 78.572 0 39.286 39.286 0 1 0-78.572 0Z" fill="#333399" p-id="2862"></path><path d="M664.302 330.66m-39.286 0a39.286 39.286 0 1 0 78.572 0 39.286 39.286 0 1 0-78.572 0Z" fill="#333399" p-id="2863"></path><path d="M438.354 343.05l66.758 38.754a16.11 16.11 0 0 0 16.178 0l66.758-38.754c14.238-8.266 8.374-30.044-8.088-30.044h-133.516c-16.464 0-22.328 21.78-8.09 30.044z" fill="#333399" p-id="2864"></path><path d="M606.512 405.954a9.992 9.992 0 0 0-12.4 6.798c-0.08 0.276-8.256 27.416-30.786 27.416-21.13 0-40.096-4.296-40.096-56.188a10 10 0 1 0-20 0c0 51.89-18.966 56.188-40.096 56.188-9.036 0-16.83-4.3-23.162-12.782-5.282-7.074-7.566-14.448-7.632-14.668a10 10 0 0 0-19.19 5.634c0.308 1.056 3.22 10.616 10.354 20.398 10.216 14.01 23.92 21.416 39.632 21.416 24.238 0 40.63-8.008 50.096-25.12 9.466 17.112 25.858 25.12 50.096 25.12 15.71 0 29.416-7.406 39.632-21.416 7.134-9.784 10.046-19.342 10.354-20.398a10 10 0 0 0-6.802-12.398z" fill="#333399" p-id="2865"></path><path d="M464.68 686.66c34.184-0.354 48.088 22.714 48.088 22.714s13.444-22.36 47.628-22.714c34.184-0.354 60.008 28.266 60.284 54.928 0.276 26.662-3.674 45.762-52.88 87.654-17.28 14.712-31.802 25.162-41.318 31.556a22.088 22.088 0 0 1-24.286 0.252c-9.646-6.196-24.382-16.344-41.962-30.694-50.064-40.864-54.41-59.878-54.686-86.54-0.276-26.66 24.948-56.8 59.132-57.156z" fill="#FF8354" p-id="2866"></path></svg>